<?xml version="1.0" standalone="no"?>
<!DOCTYPE svg PUBLIC "-//W3C//DTD SVG 20010904//EN"
 "http://www.w3.org/TR/2001/REC-SVG-20010904/DTD/svg10.dtd">
<svg version="1.0" xmlns="http://www.w3.org/2000/svg"
 width="500.000000pt" height="500.000000pt" viewBox="0 0 500.000000 500.000000"
 preserveAspectRatio="xMidYMid meet">
<metadata>
Created by potrace 1.14, written by Peter Selinger 2001-2017
</metadata>
<g transform="translate(0.000000,500.000000) scale(0.100000,-0.100000)"
fill="#000000" stroke="none">
<path d="M2825 4707 c-11 -6 -31 -12 -45 -12 -22 0 -25 -4 -21 -30 4 -43 10
-48 43 -41 34 7 72 -12 58 -29 -5 -6 -7 -21 -3 -33 5 -21 6 -21 18 -5 12 16
15 14 31 -19 18 -39 47 -54 63 -34 6 7 16 30 23 52 9 26 20 40 33 42 30 4 55
-19 56 -53 2 -43 30 -95 51 -95 10 0 18 -4 18 -9 0 -5 10 -11 23 -13 14 -2 23
-11 25 -25 3 -23 -12 -31 -23 -13 -8 13 -25 13 -25 0 0 -5 12 -16 28 -24 15
-8 21 -15 14 -16 -7 0 -10 -5 -6 -12 5 -7 2 -8 -7 -3 -33 19 -47 37 -43 58 2
12 2 16 -2 10 -3 -7 -13 -13 -22 -13 -12 0 -13 -3 -5 -11 6 -6 9 -17 6 -24 -2
-7 3 -15 12 -17 9 -1 23 -19 29 -39 12 -35 12 -36 -11 -36 -16 0 -21 3 -15 9
15 15 3 39 -36 75 -34 31 -66 35 -55 7 3 -9 -2 -14 -15 -14 -14 0 -22 -8 -24
-22 -3 -21 -5 -20 -21 10 -13 24 -15 37 -8 46 21 25 -6 69 -58 97 l-50 26 -5
-23 c-4 -15 -14 -24 -26 -24 -14 0 -22 -11 -29 -37 -6 -21 -11 -46 -11 -55 0
-9 -5 -20 -11 -24 -8 -5 -10 3 -7 25 3 22 0 31 -9 31 -8 0 -16 7 -19 15 -4 8
-14 15 -24 15 -10 0 -23 7 -30 15 -7 9 -19 14 -26 11 -7 -3 -16 -1 -20 5 -8
13 -34 -8 -34 -27 0 -8 -5 -14 -11 -14 -6 0 -8 -7 -5 -15 3 -8 9 -22 12 -30 4
-10 0 -15 -14 -15 -22 0 -47 -24 -38 -38 12 -19 -15 -70 -40 -76 -31 -8 -23
-22 16 -31 17 -4 30 -13 30 -21 0 -12 -4 -13 -22 -3 -15 8 -23 8 -26 1 -1 -5
-13 -7 -25 -4 -20 5 -21 4 -8 -11 10 -13 17 -15 27 -6 11 9 18 8 29 -1 18 -15
20 -31 3 -29 -34 4 -48 -2 -48 -21 0 -16 7 -20 30 -20 17 0 30 -2 30 -5 0 -12
-46 -52 -60 -52 -8 0 -23 -4 -32 -8 -22 -9 -25 17 -4 34 14 12 16 35 3 47 -4
4 -7 -2 -7 -13 0 -27 -23 -46 -37 -32 -8 8 -16 4 -28 -15 -10 -14 -23 -26 -31
-26 -32 0 -134 -78 -134 -102 0 -11 -3 -17 -8 -14 -14 9 -37 -19 -39 -48 0
-15 -7 -35 -15 -42 -12 -13 -18 -11 -42 11 -43 40 -58 32 -34 -20 12 -26 54
-55 80 -55 8 0 38 25 68 55 57 58 120 89 201 100 43 5 61 13 142 57 15 8 41
29 57 47 17 17 37 31 44 31 8 0 18 9 21 21 4 12 12 18 21 15 9 -4 14 2 14 17
0 18 2 19 10 7 8 -12 10 -9 10 13 0 15 -4 27 -9 27 -16 0 -24 41 -11 54 10 8
12 6 7 -12 -3 -12 -2 -20 2 -17 17 10 55 -46 53 -76 -2 -19 2 -28 8 -24 5 3
10 13 10 21 0 28 18 4 53 -69 19 -40 46 -87 61 -104 34 -40 33 -52 -6 -85 -26
-22 -30 -30 -19 -37 8 -5 21 -6 30 -3 14 5 14 4 2 -11 -13 -17 -9 -31 10 -33
5 -1 14 -2 19 -3 16 -2 49 -62 43 -77 -3 -8 -14 -14 -24 -14 -24 0 -26 -42 -4
-60 13 -11 14 -16 2 -34 -9 -13 -12 -35 -9 -56 2 -19 1 -32 -3 -28 -14 14 -65
-25 -65 -49 0 -13 -5 -23 -11 -23 -13 0 -39 -25 -39 -39 0 -5 7 -16 15 -25 12
-11 13 -21 4 -42 -5 -16 -7 -40 -4 -54 l7 -25 -26 24 c-14 14 -26 19 -26 13 0
-6 -7 -9 -15 -6 -8 4 -15 1 -15 -6 0 -6 9 -10 20 -8 10 2 19 0 20 -4 0 -5 -3
-8 -6 -7 -17 2 -21 -26 -6 -37 16 -12 15 -14 -5 -34 -31 -29 -29 -40 10 -41
17 -1 42 -4 55 -7 23 -7 23 -7 -8 -34 -24 -21 -30 -23 -30 -10 -1 12 -5 10
-15 -8 -14 -25 -15 -25 -21 -3 -6 20 -6 21 -24 3 -10 -10 -21 -27 -24 -38 -4
-11 -13 -23 -21 -26 -9 -3 -12 -12 -9 -21 4 -9 2 -26 -3 -38 -6 -12 -14 -35
-19 -52 -8 -26 -14 -30 -44 -29 -19 1 -50 8 -69 15 -28 11 -35 12 -39 1 -5
-17 -31 15 -32 40 0 13 8 17 33 16 41 -1 57 7 57 31 0 10 7 24 15 31 13 10 15
9 17 -11 0 -13 1 -30 1 -37 -1 -9 3 -10 12 -2 10 8 15 8 21 -1 4 -8 12 -3 21
16 12 21 12 30 3 39 -9 8 -14 8 -17 -1 -8 -21 -26 -14 -20 7 4 15 1 20 -10 18
-23 -4 -28 21 -6 29 38 14 72 47 78 75 5 19 12 28 20 24 8 -3 19 1 25 9 9 11
7 16 -10 25 -16 9 -19 15 -11 23 6 6 11 19 11 28 0 10 7 24 15 33 15 15 11 46
-7 46 -5 0 -7 -4 -4 -9 16 -25 -6 -36 -66 -35 -53 1 -67 -3 -95 -25 -20 -15
-31 -32 -28 -41 2 -8 -3 -5 -11 8 -16 21 -42 33 -29 13 3 -6 -7 -8 -22 -7 -16
2 -34 -1 -40 -6 -7 -6 -13 -8 -13 -4 0 3 -9 -3 -20 -14 -11 -11 -20 -24 -20
-30 0 -13 -37 -13 -42 0 -4 12 -73 -49 -81 -71 -4 -11 -9 -9 -22 6 -9 11 -14
15 -11 10 2 -6 1 -17 -4 -24 -5 -10 -10 -3 -16 20 -7 33 -8 33 -14 9 -3 -14
-12 -25 -20 -26 -8 -1 -23 -2 -32 -2 -11 -1 -18 -10 -18 -24 0 -12 -3 -18 -6
-15 -8 8 -44 -37 -44 -55 0 -23 -30 -58 -44 -52 -8 3 -23 -8 -36 -25 -12 -18
-30 -31 -43 -31 -12 0 -33 -12 -46 -25 -25 -27 -58 -39 -88 -33 -13 2 -17 11
-15 33 2 27 1 28 -11 13 -17 -21 -37 -6 -37 27 0 40 -14 36 -27 -7 -16 -55
-16 -68 2 -44 12 16 15 17 20 3 7 -16 -39 -97 -55 -97 -6 0 -9 -6 -8 -12 2 -7
-5 -13 -14 -13 -10 0 -24 -9 -31 -20 -14 -17 -18 -18 -56 -5 -45 15 -52 25
-21 35 28 9 25 25 -5 25 -19 0 -25 5 -25 22 0 20 -1 21 -20 3 -21 -19 -36 -15
-28 7 8 20 9 28 2 27 -4 0 -11 5 -15 13 -7 10 -9 9 -9 -4 0 -13 -8 -18 -31
-18 -22 0 -32 -6 -36 -19 -2 -10 -16 -24 -29 -30 -31 -14 -31 -14 -31 3 0 8 3
14 6 13 14 -3 51 25 51 39 0 8 5 12 10 9 14 -9 40 19 40 43 0 11 10 32 22 47
l22 28 -34 -7 -34 -6 22 20 c11 11 28 20 35 20 8 0 21 8 28 17 40 49 140 87
125 48 -2 -7 4 -15 15 -18 21 -6 27 8 7 16 -7 3 14 7 47 8 33 2 75 3 94 4 22
1 40 10 51 26 16 20 20 21 35 9 24 -20 54 -20 65 0 8 15 1 19 -47 30 -53 11
-57 11 -72 -9 l-16 -21 -67 34 c-66 35 -66 35 -84 15 -16 -17 -16 -22 -4 -29
19 -12 27 -12 48 -1 20 10 66 -4 58 -18 -10 -16 -84 -23 -121 -11 -19 6 -40 8
-47 3 -7 -4 -20 -6 -28 -5 -8 1 -26 -8 -40 -21 -32 -29 -79 -40 -97 -22 -7 7
-17 15 -23 17 -7 2 -7 14 1 38 16 47 32 62 69 65 32 3 142 52 148 67 2 4 12 8
22 8 11 0 41 19 68 43 27 23 63 50 80 59 30 16 32 20 31 70 -1 29 -7 71 -15
93 -8 22 -14 52 -14 68 0 29 -17 37 -26 12 -4 -8 -12 -15 -19 -15 -8 0 -17 -9
-20 -20 -3 -11 -11 -20 -17 -20 -15 0 0 53 18 63 17 10 19 29 2 25 -7 -1 -23
3 -35 10 -25 14 -46 -4 -22 -19 10 -6 11 -9 2 -9 -7 0 -22 9 -33 20 -20 20
-70 28 -70 11 0 -8 -26 -18 -78 -27 -15 -3 -21 -1 -17 6 3 5 1 10 -5 10 -6 0
-13 -7 -16 -15 -4 -8 -13 -15 -21 -15 -7 0 -13 -7 -11 -16 2 -10 -3 -19 -11
-22 -8 -3 -11 0 -7 7 4 6 3 11 -3 11 -5 0 -12 -4 -16 -9 -3 -6 -20 -8 -38 -6
-18 2 -42 -2 -54 -10 -29 -19 -43 -19 -43 0 0 8 -5 15 -10 15 -6 0 -9 5 -8 11
2 6 -2 13 -9 16 -6 2 -19 -13 -29 -33 -17 -36 -34 -32 -18 4 4 9 7 20 6 24 -1
4 10 16 25 27 l26 21 19 -23 20 -22 -7 33 c-5 23 -3 32 6 32 10 0 10 3 1 12
-7 7 -12 19 -12 28 0 31 -49 16 -72 -21 -11 -19 -24 -36 -29 -39 -4 -3 -12
-17 -18 -31 -8 -23 -15 -26 -52 -25 -26 0 -44 -4 -47 -12 -2 -6 -10 -12 -18
-12 -19 0 -18 -44 1 -60 8 -7 22 -9 31 -6 13 5 12 0 -5 -29 -33 -56 -27 -77
10 -35 24 27 28 29 18 10 -6 -14 -19 -34 -28 -44 -9 -11 -10 -16 -3 -12 6 4
12 3 12 -2 0 -18 -26 -20 -37 -3 -6 10 -19 17 -30 16 -31 -3 -63 -16 -63 -26
0 -6 5 -7 10 -4 13 8 13 -1 0 -26 -6 -10 -17 -19 -25 -19 -8 0 -33 -16 -55
-36 -34 -31 -38 -39 -28 -52 11 -13 10 -15 -3 -10 -9 3 -22 3 -29 -2 -16 -10
-3 -33 15 -26 7 2 16 -2 19 -10 9 -24 7 -27 -15 -21 -17 5 -55 -5 -77 -19 -2
-1 -5 -14 -6 -28 -2 -17 2 -26 10 -26 9 0 14 -11 14 -29 0 -24 -4 -29 -20 -28
-11 1 -20 6 -20 11 0 6 -4 6 -11 -1 -17 -17 -47 -4 -42 18 9 32 -5 21 -51 -40
-34 -48 -47 -77 -64 -148 -31 -132 -34 -179 -16 -198 27 -27 67 -19 92 20 22
34 45 45 57 26 3 -5 0 -13 -6 -16 -16 -10 -49 -93 -49 -122 0 -25 1 -25 18
-10 16 15 62 24 62 13 0 -2 -11 -24 -25 -47 -31 -55 -31 -64 -1 -44 21 14 25
14 45 -2 21 -17 21 -20 7 -48 -23 -46 -39 -89 -38 -97 1 -5 -2 -8 -8 -8 -5 0
-10 9 -10 20 0 11 -5 20 -11 20 -7 0 -9 11 -6 30 4 18 2 34 -6 40 -6 6 -23 19
-36 30 -13 11 -19 20 -13 20 7 0 12 4 12 9 0 5 -8 8 -18 7 -11 -1 -25 14 -39
43 -12 24 -29 51 -37 60 -9 9 -27 39 -42 66 -35 67 -48 79 -30 27 11 -30 13
-50 6 -68 -13 -32 -13 -74 -1 -74 5 0 19 -30 32 -67 25 -77 37 -96 56 -89 16
6 17 -6 2 -21 -8 -8 -8 -13 0 -17 17 -11 13 -34 -7 -41 -11 -3 -24 -18 -31
-33 -10 -22 -10 -25 0 -14 26 25 39 14 39 -34 0 -34 3 -45 13 -41 7 3 19 -3
25 -14 9 -14 8 -21 -4 -34 -8 -8 -21 -15 -29 -15 -13 0 -25 -36 -18 -56 4 -12
53 -7 53 5 0 4 26 8 57 9 60 1 123 -13 135 -31 3 -6 26 -11 51 -12 42 -2 44 0
71 46 29 53 41 65 51 49 3 -5 1 -10 -5 -10 -6 0 -9 -4 -5 -10 3 -5 12 -7 20
-4 8 4 13 10 10 15 -3 4 6 16 20 25 31 20 22 38 -16 30 -22 -4 -29 -2 -29 9 0
9 10 15 25 15 14 0 25 5 25 10 0 13 -69 2 -89 -14 -11 -8 -15 -8 -18 2 -8 20
-20 13 -18 -10 2 -27 36 -32 47 -8 6 13 7 12 7 -2 1 -19 -34 -42 -49 -33 -6 3
-10 2 -10 -4 0 -7 -10 -6 -30 0 -36 13 -40 32 -5 23 21 -5 25 -3 25 17 0 19
-2 21 -10 9 -8 -13 -11 -12 -23 4 -11 15 -12 29 -5 55 15 60 28 79 49 74 23
-6 25 -23 4 -23 -8 0 -15 -4 -15 -10 0 -5 7 -10 15 -10 13 0 14 -4 5 -20 -6
-11 -14 -18 -19 -16 -4 3 -12 -4 -19 -14 -12 -20 -9 -20 36 -3 28 10 66 10 74
-1 4 -6 12 -5 22 3 8 7 43 15 77 18 52 5 61 4 54 -8 -8 -12 -6 -12 8 0 15 12
17 11 17 -4 0 -15 -7 -16 -57 -10 -51 6 -56 5 -44 -9 7 -9 11 -23 7 -31 -3 -9
0 -15 8 -15 8 0 16 6 19 14 4 9 15 12 31 9 22 -5 24 -8 15 -20 -10 -11 -8 -15
9 -20 25 -6 27 -14 10 -31 -17 -17 -30 -15 -26 5 1 10 -1 19 -6 20 -5 1 -12 6
-15 12 -8 12 -51 3 -51 -11 0 -5 -11 -20 -25 -34 -28 -28 -34 -60 -10 -50 8 3
15 1 15 -5 0 -6 5 -7 10 -4 5 3 10 1 10 -4 0 -6 -5 -11 -11 -11 -16 0 -41 -29
-34 -40 3 -5 3 -10 0 -10 -3 0 -11 14 -16 30 -11 31 -29 41 -29 16 0 -8 -3
-16 -7 -18 -11 -4 -63 -118 -66 -145 -2 -11 -7 -27 -13 -35 -5 -7 -18 -39 -29
-70 -18 -57 -28 -68 -40 -48 -3 6 1 13 9 16 9 4 16 18 16 33 0 15 7 37 16 50
13 18 14 25 4 31 -7 5 -9 16 -5 30 4 12 9 19 12 16 6 -6 33 40 33 56 0 6 -5 6
-14 -1 -10 -9 -15 -8 -19 3 -4 9 -2 18 3 21 20 12 9 25 -19 25 -16 0 -31 3
-34 8 -2 4 -3 2 -1 -4 1 -7 -12 -14 -29 -18 -76 -13 -97 -19 -97 -28 0 -5 -4
-7 -9 -4 -15 9 -61 -60 -61 -91 1 -20 9 -33 33 -48 19 -13 32 -29 32 -42 1
-28 26 -74 37 -67 4 3 8 -7 7 -23 0 -15 -3 -22 -6 -15 -12 30 -18 5 -17 -76 1
-85 15 -138 41 -155 6 -4 14 -20 18 -37 23 -105 334 -490 452 -560 43 -25 51
-20 34 23 -20 51 -68 197 -85 259 -14 49 -29 71 -99 145 -109 115 -193 242
-237 359 -15 38 -3 28 20 -16 48 -94 120 -191 207 -278 99 -99 127 -147 144
-242 5 -30 14 -64 19 -75 5 -11 18 -50 30 -86 11 -36 34 -87 50 -113 17 -26
41 -68 54 -94 35 -68 94 -130 173 -185 69 -47 108 -62 84 -33 -16 19 -5 24 57
23 29 0 56 3 59 7 3 3 17 6 30 6 20 0 23 4 17 26 -7 25 -6 26 27 18 19 -4 44
-8 57 -8 12 0 22 -6 22 -13 0 -8 -13 -13 -35 -13 -24 0 -35 -5 -35 -15 0 -8 4
-15 8 -15 5 0 19 -9 32 -20 13 -12 30 -18 38 -15 42 16 62 17 62 2 0 -15 56
-41 70 -32 6 4 59 -13 123 -40 11 -5 17 -3 17 6 0 8 6 3 13 -10 11 -21 20 -24
82 -27 38 -1 75 2 81 7 14 12 44 1 44 -16 0 -7 7 -18 15 -25 21 -17 10 -30
-28 -32 -18 0 18 -4 78 -8 467 -32 1043 171 1446 508 200 168 353 354 513 625
32 54 61 96 63 93 3 -2 -2 -15 -10 -28 -8 -12 -18 -43 -22 -66 -7 -41 -6 -43
11 -34 60 33 154 158 154 205 0 8 11 30 24 49 28 42 37 94 23 126 -9 19 -8 26
6 33 9 6 17 18 17 28 0 10 7 24 15 31 11 9 15 28 14 64 -1 28 1 88 5 132 l7
82 -32 11 c-24 8 -30 15 -24 28 32 78 32 453 0 635 -3 20 0 26 13 24 11 -2 17
-13 18 -32 1 -46 16 -114 25 -120 5 -3 10 -42 11 -87 l2 -82 3 68 c3 45 8 67
16 67 15 0 39 77 38 122 0 40 -6 74 -26 153 -40 161 -47 192 -51 219 -5 40
-11 60 -49 156 -19 47 -38 102 -43 122 -13 49 -70 128 -88 121 -10 -4 -11 -9
-1 -23 15 -25 -1 -40 -17 -17 -7 9 -18 17 -25 17 -6 0 -11 7 -11 15 0 8 7 15
14 15 11 0 3 21 -25 70 -26 44 -47 70 -58 70 -19 0 -52 40 -75 91 -8 19 -36
57 -61 84 -26 28 -43 43 -38 35 13 -19 24 -50 18 -50 -8 0 -65 89 -63 97 4 13
-93 128 -123 145 -14 9 -32 30 -40 47 -10 21 -21 31 -36 31 -13 0 -23 6 -23
13 0 8 -13 33 -30 55 -16 23 -30 46 -30 52 0 5 -15 17 -32 26 -18 9 -42 25
-53 35 -80 74 -115 92 -181 93 -28 1 -59 7 -68 15 -17 14 -23 36 -6 26 6 -3
10 0 10 8 0 18 -93 64 -98 49 -4 -13 -53 6 -65 25 -11 17 -60 17 -55 1 2 -7
19 -19 36 -27 18 -8 32 -21 32 -28 0 -11 -5 -11 -22 -2 -42 21 -68 52 -62 71
5 16 -5 23 -29 19 -4 -1 -42 17 -84 39 -88 46 -122 51 -124 18 -1 -17 -2 -19
-6 -5 -2 9 -8 17 -13 17 -21 0 -40 -14 -40 -28 0 -13 -4 -11 -16 6 -8 12 -22
22 -30 22 -8 0 -14 5 -14 11 0 8 -4 8 -14 0 -11 -10 -17 -8 -25 6 -10 17 -10
17 -11 -1 0 -19 -1 -18 -23 2 -26 24 -61 28 -92 9z m315 -117 c0 -11 -4 -20
-10 -20 -5 0 -10 9 -10 20 0 11 5 20 10 20 6 0 10 -9 10 -20z m241 -147 c13
-15 11 -16 -23 -10 -47 7 -53 -15 -10 -37 33 -17 82 -62 82 -75 0 -5 15 -18
33 -30 34 -22 24 -28 -17 -10 -14 7 -23 16 -20 20 3 5 2 9 -3 10 -33 3 -58 11
-65 22 -4 6 -8 7 -8 2 0 -6 7 -21 16 -34 16 -22 16 -23 -5 -11 -12 6 -25 18
-28 26 -3 8 -11 14 -19 14 -8 0 -14 7 -14 15 0 8 7 15 15 15 8 0 15 2 15 5 0
12 -28 49 -72 98 -27 28 -48 56 -48 63 0 14 152 -59 171 -83z m244 -64 c11
-17 0 -20 -21 -4 -17 13 -17 14 -2 15 9 0 20 -5 23 -11z m-1030 -59 c-3 -5
-11 -10 -16 -10 -6 0 -7 5 -4 10 3 6 11 10 16 10 6 0 7 -4 4 -10z m300 -21 c9
-14 -24 -38 -52 -39 -29 0 -29 14 -1 34 26 19 44 20 53 5z m-311 -30 c-18 -20
-18 -21 1 -36 20 -15 20 -15 0 -11 -13 2 -20 12 -21 28 -1 32 4 40 23 40 14 0
13 -3 -3 -21z m264 -119 l-3 -22 -27 22 c-19 14 -28 17 -28 8 0 -7 -7 0 -15
15 -10 20 -12 34 -5 47 5 9 6 21 2 26 -4 4 12 -10 36 -33 30 -29 43 -48 40
-63z m409 84 c-3 -3 -12 -4 -19 -1 -8 3 -5 6 6 6 11 1 17 -2 13 -5z m-77 -28
c-1 -5 4 -12 11 -17 20 -12 -9 -59 -35 -58 -18 1 -18 2 -3 6 16 4 17 11 12 45
-5 29 -4 39 5 36 6 -2 11 -7 10 -12z m713 -56 c8 -29 -12 -24 -23 6 -13 34
-13 39 4 25 8 -6 16 -21 19 -31z m-33 -9 c-1 -13 -3 -13 -15 3 -19 26 -19 42
0 26 8 -7 15 -20 15 -29z m-920 -24 c0 -5 -9 -11 -19 -14 -11 -3 -22 -11 -25
-19 -3 -8 -12 -14 -20 -14 -18 0 -33 43 -17 48 6 2 11 12 11 23 0 18 1 18 35
2 19 -9 35 -21 35 -26z m370 -44 c5 -19 4 -31 -1 -27 -5 3 -9 -4 -9 -15 0 -11
4 -22 9 -26 5 -3 12 -19 16 -36 4 -16 16 -35 26 -42 25 -15 74 -85 66 -94 -4
-3 -13 0 -22 7 -9 7 -19 10 -23 6 -4 -4 3 -15 14 -24 27 -22 38 -52 19 -52 -8
0 -21 14 -30 30 -15 28 -35 41 -35 21 0 -5 -11 -4 -25 2 -26 13 -48 61 -47
106 0 14 -3 31 -7 36 -4 6 -8 41 -9 80 -1 52 3 74 16 88 16 17 16 17 25 -5 5
-13 13 -38 17 -55z m645 37 c7 0 15 -10 18 -22 2 -13 16 -49 31 -80 16 -36 21
-57 13 -55 -6 1 -11 -6 -11 -15 1 -13 -2 -14 -15 -6 -16 10 -51 100 -51 133 0
10 -8 27 -17 38 -17 20 -17 20 0 14 10 -4 24 -7 32 -7z m-825 -60 c-6 -12 -14
-20 -17 -17 -2 3 1 14 8 26 7 11 15 18 17 16 2 -2 -2 -13 -8 -25z m-73 -27
c-3 -10 -5 -2 -5 17 0 19 2 27 5 18 2 -10 2 -26 0 -35z m280 -5 c-3 -8 -6 -5
-6 6 -1 11 2 17 5 13 3 -3 4 -12 1 -19z m-1034 -52 c-10 -13 -19 -23 -21 -21
-7 6 19 45 29 45 5 0 2 -11 -8 -24z m807 10 c0 -18 -17 -29 -30 -21 -8 5 -7
11 1 21 15 18 29 18 29 0z m1055 -36 c7 -12 -2 -12 -30 0 -19 8 -19 9 2 9 12
1 25 -3 28 -9z m-62 -43 c15 -6 17 -3 12 13 -11 35 9 21 38 -27 21 -35 31 -43
37 -33 12 19 35 -1 61 -52 11 -21 24 -38 30 -38 6 0 7 -5 4 -10 -9 -15 22 -60
41 -60 15 0 15 2 0 25 -23 36 -5 31 30 -7 27 -31 59 -88 49 -88 -2 0 -21 12
-42 26 -21 14 -39 21 -41 15 -2 -6 -10 -11 -17 -11 -8 0 -16 -4 -19 -8 -8 -13
5 -52 16 -52 6 0 8 7 4 15 -11 29 2 15 34 -37 17 -29 46 -62 63 -74 18 -11 31
-26 30 -32 -2 -6 11 -22 28 -36 17 -14 28 -26 24 -26 -3 0 -1 -9 5 -21 11 -20
11 -20 -14 -4 -29 19 -32 15 -14 -18 6 -12 12 -36 12 -54 1 -29 -1 -31 -11
-16 -12 16 -13 16 -13 -1 0 -9 5 -26 10 -37 12 -21 1 -26 -18 -7 -14 14 -16 4
-3 -21 7 -13 6 -18 -5 -18 -7 0 -14 7 -14 14 0 8 -4 11 -10 8 -5 -3 -10 -2
-10 3 0 14 -29 23 -45 15 -9 -6 5 -32 55 -98 38 -49 73 -91 79 -93 6 -2 11 8
11 23 0 15 4 25 9 23 18 -6 93 -80 87 -85 -3 -3 -12 0 -21 7 -24 20 -25 8 -4
-40 21 -47 18 -76 -6 -66 -21 8 -19 -17 5 -47 20 -25 26 -79 14 -111 -6 -16
-45 -23 -43 -8 3 19 -2 33 -10 28 -5 -4 -7 2 -4 13 5 21 -48 113 -55 93 -5
-16 -22 -16 -22 1 0 6 -11 25 -25 41 -14 16 -25 33 -25 38 0 5 -5 8 -12 6 -7
-3 -22 16 -34 43 -25 53 -34 61 -54 49 -13 -8 -12 -14 3 -40 10 -16 13 -30 8
-30 -6 0 -11 4 -11 8 0 4 -19 13 -42 20 -24 7 -49 15 -56 19 -11 4 -10 0 1
-18 9 -13 25 -55 37 -92 12 -38 25 -66 28 -63 3 3 16 -10 29 -29 25 -37 29
-50 11 -39 -7 4 -8 3 -4 -5 4 -6 11 -9 16 -6 5 3 11 1 14 -4 3 -5 -1 -11 -9
-15 -19 -7 -19 -20 -1 -39 13 -12 20 -39 17 -59 -2 -12 -51 38 -51 52 0 7 -7
10 -16 6 -8 -3 -12 -2 -9 4 7 12 -12 50 -25 50 -6 0 -10 -6 -10 -13 0 -12 -35
-40 -55 -43 -5 0 -17 -2 -25 -3 -12 -1 -12 -4 3 -12 21 -12 23 -31 2 -23 -8 4
-15 1 -15 -5 0 -6 5 -11 10 -11 6 0 9 -18 8 -40 -2 -25 -8 -40 -16 -40 -8 0
-16 -9 -19 -21 -5 -17 -11 -19 -36 -13 -26 5 -28 4 -16 -9 8 -8 17 -13 21 -11
4 2 9 -5 12 -16 3 -11 9 -29 12 -40 5 -17 1 -20 -30 -20 -25 0 -36 -4 -36 -15
0 -18 -17 -20 -22 -3 -8 23 -28 -4 -28 -38 0 -32 -2 -34 -35 -34 -22 0 -38 -6
-41 -14 -3 -8 -12 -12 -20 -9 -12 4 -14 0 -8 -21 4 -16 2 -26 -5 -26 -6 0 -11
-7 -11 -16 0 -9 -6 -14 -13 -11 -7 3 -24 -1 -37 -8 -14 -7 -33 -10 -45 -6 -30
11 -76 -2 -89 -24 -21 -38 -42 -45 -51 -16 -4 14 -14 18 -43 16 -54 -3 -54 -3
-47 -26 7 -21 5 -22 -36 -14 -24 4 -57 7 -74 7 -16 0 -33 5 -37 11 -5 8 -13 8
-30 0 -37 -17 -80 -31 -121 -38 -32 -5 -38 -10 -35 -28 2 -16 -2 -22 -17 -22
-14 0 -19 6 -17 18 3 17 -6 21 -40 18 -9 -1 -18 6 -20 15 -2 13 -16 18 -63 20
-33 2 -70 6 -82 9 -23 5 -25 13 -27 110 -1 17 -4 35 -8 40 -3 6 -5 38 -3 70 4
76 41 152 106 217 26 26 50 55 54 65 3 10 23 30 45 45 35 24 40 33 40 66 0 31
6 43 30 60 16 12 31 22 34 22 3 0 27 15 53 33 26 17 66 37 88 44 22 6 63 18
90 26 104 32 195 57 205 57 5 0 10 -9 10 -20 0 -11 5 -20 11 -20 6 0 9 -7 5
-15 -3 -10 1 -15 13 -15 11 0 18 -7 17 -17 -1 -18 13 -22 129 -42 39 -7 83
-15 99 -18 27 -5 28 -4 21 28 -3 19 -9 42 -12 53 -5 17 1 18 68 16 112 -4 118
-3 129 25 11 29 13 30 45 9 14 -9 25 -12 25 -6 0 6 -6 13 -12 16 -10 3 -8 9 5
19 21 18 22 37 1 37 -14 0 -15 7 -10 40 3 22 2 40 -3 40 -16 0 4 65 22 68 9 2
17 -2 17 -8 0 -7 -7 -10 -15 -6 -17 6 -20 -12 -4 -34 8 -13 12 -11 27 9 20 29
21 51 5 69 -9 10 -17 7 -37 -13 -14 -14 -26 -36 -27 -48 -1 -21 -1 -21 -7 -1
-4 11 -17 33 -28 49 -21 28 -22 28 -28 7 -5 -13 -16 -23 -29 -23 -12 -1 -40
-3 -62 -5 -28 -2 -35 -1 -25 6 12 7 12 13 4 27 -6 10 -10 29 -8 43 1 14 3 30
3 37 1 17 68 28 85 14 10 -9 16 -8 26 4 7 9 21 13 31 10 15 -5 17 -1 15 22 -2
15 -4 33 -5 38 0 6 -16 19 -33 30 -43 24 -118 96 -118 112 0 7 -4 13 -10 13
-5 0 -10 9 -10 19 0 25 -21 32 -45 15 -24 -18 -35 -18 -35 1 0 8 7 15 15 15 8
0 15 5 15 10 0 15 66 44 84 37 12 -5 15 -14 11 -30 -5 -20 5 -34 65 -86 39
-34 84 -76 98 -94 15 -17 30 -33 35 -35 4 -2 7 -12 7 -22 0 -23 65 -96 91
-103 10 -3 17 -1 14 3 -3 5 -1 11 5 15 19 12 11 63 -13 82 -12 10 -34 34 -47
53 -14 19 -32 42 -40 51 -81 87 -141 164 -144 187 -2 13 -13 17 -41 18 -21 0
-40 5 -43 12 -2 6 -10 8 -19 5 -11 -4 -14 -3 -9 6 4 6 2 18 -4 27 -16 18 -23
74 -10 74 5 0 21 -11 35 -26 28 -28 40 -26 47 11 4 20 1 26 -18 31 -16 4 -24
13 -24 27 0 18 2 19 18 5 9 -8 25 -18 35 -21z m-443 -14 c11 3 23 1 26 -4 3
-5 10 -7 15 -4 5 4 9 1 9 -6 0 -7 -10 -9 -30 -5 -24 4 -30 2 -30 -12 0 -14 -4
-12 -20 8 -11 14 -20 32 -19 40 0 12 3 11 14 -4 9 -12 22 -17 35 -13z m-424
-28 c9 -13 14 -28 12 -33 -1 -5 -13 6 -25 24 -12 19 -18 34 -13 34 5 0 17 -11
26 -25z m584 -55 c0 -5 -5 -10 -11 -10 -5 0 -7 5 -4 10 3 6 8 10 11 10 2 0 4
-4 4 -10z m-730 -70 c0 -5 -4 -10 -10 -10 -5 0 -10 5 -10 10 0 6 5 10 10 10 6
0 10 -4 10 -10z m-3 -96 c9 -9 19 -36 23 -59 6 -37 4 -44 -12 -48 -13 -4 -18
0 -18 15 0 16 -5 19 -24 14 -15 -4 -28 0 -36 9 -10 12 -6 18 17 32 18 11 27
25 25 36 -4 21 5 22 25 1z m83 -16 c0 -9 4 -8 10 2 8 12 10 11 10 -7 0 -16 6
-23 19 -23 28 0 47 -26 31 -45 -7 -8 -18 -15 -24 -15 -6 0 -17 -9 -24 -20 -18
-30 -30 -24 -28 13 2 17 -3 49 -10 70 -11 32 -11 37 1 37 8 0 15 -6 15 -12z
m514 -5 c4 -4 -3 -15 -16 -25 -20 -15 -21 -18 -5 -18 10 0 15 -5 12 -10 -5 -8
-11 -8 -19 -1 -7 6 -16 7 -21 3 -4 -4 -5 0 -1 8 3 8 9 23 12 33 6 17 25 23 38
10z m-287 -23 c3 -11 9 -20 13 -20 13 0 43 -71 33 -81 -5 -5 -23 -5 -43 1 -26
7 -38 7 -47 -3 -15 -15 -24 -87 -11 -87 4 0 8 -4 8 -9 0 -13 -53 -7 -57 6 -2
5 -24 8 -48 6 -50 -5 -61 10 -20 29 14 6 25 15 25 20 0 4 7 8 15 8 19 0 55 58
48 76 -3 8 5 18 21 24 16 6 26 17 26 30 0 26 30 26 37 0z m1047 -21 c-6 -11
-24 -2 -24 11 0 5 7 7 15 4 8 -4 12 -10 9 -15z m-30 -15 c3 -8 2 -12 -4 -9 -6
3 -10 10 -10 16 0 14 7 11 14 -7z m60 -59 c-4 -8 -10 -15 -15 -15 -5 0 -9 7
-9 15 0 8 7 15 15 15 9 0 12 -6 9 -15z m-3199 -5 c-3 -5 -11 -10 -16 -10 -6 0
-7 5 -4 10 3 6 11 10 16 10 6 0 7 -4 4 -10z m319 -31 c-16 -17 -16 -22 -4 -29
13 -8 11 -12 -7 -25 -13 -9 -23 -22 -23 -29 0 -7 -10 -22 -22 -33 -26 -24 -75
-42 -64 -24 4 6 14 11 21 11 15 0 35 30 35 51 0 6 -8 9 -20 6 -11 -3 -22 -1
-25 4 -7 10 -125 -49 -125 -63 0 -4 -5 -8 -11 -8 -6 0 -25 -15 -43 -34 -17
-19 -42 -36 -56 -38 -15 -2 -30 -14 -38 -31 -9 -18 -19 -26 -28 -23 -15 6 -15
-15 0 -26 6 -4 -3 -12 -20 -19 -16 -7 -37 -19 -46 -27 -31 -26 -19 4 14 37 18
18 26 31 18 31 -8 0 1 12 18 26 40 33 44 58 7 41 -14 -7 -25 -15 -25 -19 0 -5
-5 -8 -11 -8 -5 0 -7 5 -4 10 3 6 -3 10 -14 10 -28 0 -27 17 2 25 12 4 51 19
86 32 48 19 69 23 81 15 14 -8 20 -5 34 19 12 20 25 29 44 30 15 0 72 24 127
54 111 59 127 65 99 34z m1870 5 c8 -22 9 -20 -25 -34 -26 -11 -32 -11 -39 1
-10 15 7 42 20 34 5 -3 11 -1 15 5 9 15 22 12 29 -6z m-1697 -54 c1 -28 -3
-50 -8 -50 -5 0 -9 4 -9 9 0 15 -95 4 -98 -11 -1 -8 -25 -18 -57 -24 -68 -12
-71 5 -4 22 48 12 89 34 89 46 0 4 16 14 35 22 19 8 35 20 35 25 0 6 3 11 8
11 4 0 8 -23 9 -50z m2765 6 c5 -24 4 -25 -23 -10 -32 16 -32 16 -23 38 9 23
40 3 46 -28z m-3258 -1 c-4 -10 0 -15 10 -15 9 0 19 7 22 15 9 22 23 18 17 -5
-3 -11 -10 -20 -15 -20 -5 0 -7 -8 -3 -19 5 -15 1 -19 -22 -19 -15 1 -44 -2
-63 -6 l-35 -7 38 23 c30 18 36 27 32 46 -4 15 -1 22 9 22 10 0 13 -6 10 -15z
m1686 1 c0 -11 -19 -15 -25 -6 -3 5 1 10 9 10 9 0 16 -2 16 -4z m-1710 -16 c0
-5 -5 -10 -11 -10 -5 0 -7 5 -4 10 3 6 8 10 11 10 2 0 4 -4 4 -10z m2350 -19
c-5 -11 -15 -23 -20 -26 -14 -9 -12 19 2 33 19 19 30 14 18 -7z m-647 -6 c-3
-9 -8 -14 -10 -11 -3 3 -2 9 2 15 9 16 15 13 8 -4z m-1770 -26 c-7 -26 -73
-54 -73 -30 0 5 11 12 25 15 14 4 28 13 31 21 9 23 23 18 17 -6z m2140 2 c-3
-13 -11 -17 -24 -14 -22 6 -25 19 -6 26 25 11 35 7 30 -12z m49 -3 c-7 -7 -12
-8 -12 -2 0 6 3 14 7 17 3 4 9 5 12 2 2 -3 -1 -11 -7 -17z m20 -10 c-18 -18
-14 -46 8 -58 17 -9 19 -20 18 -75 -1 -36 -6 -65 -11 -65 -5 0 -7 -18 -6 -41
3 -40 2 -42 -48 -69 -69 -38 -110 -45 -148 -26 -27 14 -31 24 -47 103 -9 49
-16 93 -13 99 2 8 31 12 80 11 85 0 107 11 110 60 3 50 5 53 24 53 11 0 23 5
26 10 3 6 9 10 13 10 3 0 1 -5 -6 -12z m18 -38 c-8 -5 -17 -7 -19 -4 -3 3 1 9
9 14 8 5 17 7 19 4 3 -3 -1 -9 -9 -14z m-2420 -44 c0 -2 -13 -9 -30 -15 -35
-12 -41 -5 -7 9 25 10 37 12 37 6z m1650 -32 c0 -8 -4 -12 -10 -9 -5 3 -10 10
-10 16 0 5 5 9 10 9 6 0 10 -7 10 -16z m-1675 -4 c3 -5 1 -10 -4 -10 -6 0 -11
5 -11 10 0 6 2 10 4 10 3 0 8 -4 11 -10z m26 -33 c-13 -12 -20 -15 -16 -7 14
26 28 41 33 35 3 -3 -5 -16 -17 -28z m3541 -12 c12 -16 9 -25 -7 -25 -19 0
-55 36 -55 55 0 13 4 13 28 -2 15 -10 30 -22 34 -28z m-1662 -13 c0 -4 -5 -14
-10 -22 -9 -13 -11 -13 -19 0 -6 9 -6 19 1 27 10 12 28 9 28 -5z m-276 -104
c8 -34 -11 -46 -24 -14 -5 15 -14 24 -20 21 -5 -3 -10 -1 -10 4 0 6 11 11 24
11 16 0 26 -7 30 -22z m-1701 -18 c-3 -10 -11 -24 -18 -30 -8 -6 -11 -18 -8
-26 3 -8 0 -14 -6 -14 -16 0 -14 15 10 54 24 41 29 45 22 16z m1897 -27 c-1
-24 -2 -26 -11 -10 -5 9 -7 22 -4 27 10 17 15 11 15 -17z m204 -24 c-8 -14
-34 -11 -34 4 0 8 3 17 7 20 9 9 34 -13 27 -24z m-2093 -31 c2 -18 1 -55 -2
-83 l-6 -50 -2 55 c-1 30 -5 61 -10 69 -10 15 -4 41 9 41 4 0 9 -15 11 -32z
m3444 22 c3 -5 1 -10 -4 -10 -6 0 -11 5 -11 10 0 6 2 10 4 10 3 0 8 -4 11 -10z
m-1515 -126 c0 -8 -4 -12 -10 -9 -5 3 -10 13 -10 21 0 8 5 12 10 9 6 -3 10
-13 10 -21z m-1757 -29 c-3 -21 -1 -41 7 -50 10 -12 10 -15 0 -15 -6 0 -14 9
-17 20 -3 11 -9 20 -14 20 -5 0 -6 7 -4 15 3 8 7 22 10 30 9 30 24 14 18 -20z
m352 26 c10 -17 -12 -21 -25 -6 -10 12 -10 15 3 15 9 0 18 -4 22 -9z m1263
-43 c-6 -18 -28 -21 -28 -4 0 9 7 16 16 16 9 0 14 -5 12 -12z m-1801 -40 c-3
-7 -5 -2 -5 12 0 14 2 19 5 13 2 -7 2 -19 0 -25z m397 -3 c3 -8 1 -15 -4 -15
-6 0 -10 7 -10 15 0 8 2 15 4 15 2 0 6 -7 10 -15z m1016 -10 c14 -19 14 -19
-2 -6 -10 7 -18 18 -18 24 0 6 1 8 3 6 1 -2 9 -13 17 -24z m98 -2 c2 -8 -5
-13 -18 -13 -12 0 -18 -4 -15 -10 4 -6 4 -18 1 -27 -6 -15 -8 -14 -20 3 -7 10
-15 29 -19 42 -5 21 -3 23 31 20 19 -2 37 -9 40 -15z m-921 -7 c-10 -8 -19
-23 -20 -34 -1 -19 -27 -20 -27 -2 0 18 13 40 20 35 5 -3 11 -1 15 5 3 5 12
10 18 10 7 0 4 -7 -6 -14z m1517 -54 c-6 -19 -32 -38 -41 -28 -3 2 3 21 13 41
13 27 19 33 25 23 4 -8 6 -24 3 -36z m-1997 16 c-3 -8 -6 -5 -6 6 -1 11 2 17
5 13 3 -3 4 -12 1 -19z m3619 -40 c-4 -43 -15 -75 -33 -102 -25 -38 -26 -39
-34 -18 -6 16 0 34 26 74 19 29 35 65 35 80 0 16 3 28 6 28 4 0 4 -28 0 -62z
m-3334 -20 c-8 -8 -9 -4 -5 13 4 13 8 18 11 10 2 -7 -1 -18 -6 -23z m34 -23
c-3 -9 3 -19 17 -27 12 -6 23 -11 25 -10 8 6 24 1 18 -5 -4 -4 -14 -8 -22 -8
-7 0 -13 -4 -13 -9 1 -13 -26 -27 -59 -31 -15 -2 -34 -5 -41 -7 -7 -2 -16 3
-18 10 -3 6 2 12 10 12 8 0 20 7 27 15 7 8 21 15 32 15 15 0 18 5 13 20 -3 11
-3 24 0 30 9 15 18 12 11 -5z m3244 -135 c13 -22 27 -40 31 -40 4 0 10 18 14
41 8 47 17 45 17 -4 0 -52 -12 -98 -24 -91 -6 4 -14 1 -18 -6 -5 -8 -10 2 -15
26 -3 22 -15 55 -25 74 -16 30 -19 32 -20 13 -1 -54 -30 -17 -69 88 l-21 54
53 -58 c28 -31 63 -75 77 -97z m-3624 125 c12 -9 14 -14 6 -15 -7 0 -10 -5 -7
-10 4 -6 10 -8 15 -5 5 3 12 0 16 -6 4 -8 3 -9 -4 -5 -7 4 -12 2 -12 -3 0 -11
13 -15 38 -12 7 1 12 -10 12 -29 l0 -31 -38 38 c-22 21 -42 46 -45 56 -5 12
-17 17 -44 17 -28 0 -34 3 -23 10 22 14 63 12 86 -5z m229 -5 c3 -5 2 -10 -4
-10 -5 0 -13 5 -16 10 -3 6 -2 10 4 10 5 0 13 -4 16 -10z m2998 -43 c3 -8 1
-20 -4 -28 -6 -10 -9 -7 -9 14 0 29 5 35 13 14z m-3036 -24 c-2 -15 -9 -29
-17 -31 -8 -3 -10 1 -6 9 3 8 9 22 12 32 9 26 15 21 11 -10z m1745 -9 c0 -16
-18 -65 -40 -109 -22 -44 -46 -106 -52 -138 -11 -56 -13 -58 -30 -42 -32 29
-98 2 -129 -52 -8 -15 -12 -16 -23 -4 -9 10 -10 12 0 7 16 -9 16 18 -1 32 -8
7 -19 6 -37 -3 -33 -18 -40 -18 -40 0 0 9 -7 18 -15 21 -14 6 -13 8 1 19 11 8
15 19 10 30 -6 17 -8 16 -31 -5 -13 -12 -28 -19 -34 -16 -6 4 -19 1 -30 -6
-23 -14 -26 -12 -36 20 -6 22 -5 23 14 12 21 -11 46 -5 37 8 -2 4 14 8 35 10
39 2 139 -34 139 -50 0 -13 50 -9 80 7 32 17 52 46 42 61 -14 19 -34 14 -58
-16 -14 -16 -31 -30 -38 -30 -20 0 -76 30 -76 41 0 6 5 7 11 3 7 -4 10 5 7 27
l-3 34 43 -4 c43 -3 77 13 66 31 -3 5 4 20 17 34 12 13 19 24 15 24 -5 0 -3 7
4 15 7 8 23 15 37 15 28 0 74 22 93 45 16 19 21 15 22 -21z m-1486 -22 c-15
-15 -15 -15 -4 10 7 15 15 23 17 17 2 -6 -4 -18 -13 -27z m-456 13 c11 -13 8
-15 -19 -15 -30 0 -39 9 -24 23 11 11 30 8 43 -8z m240 -25 c0 -5 -5 -10 -11
-10 -5 0 -7 5 -4 10 3 6 8 10 11 10 2 0 4 -4 4 -10z m204 -25 c3 -8 1 -15 -4
-15 -6 0 -10 7 -10 15 0 8 2 15 4 15 2 0 6 -7 10 -15z m-290 -30 c-7 -18 -14
-18 -34 -4 -11 8 -12 12 -2 16 6 2 9 9 6 15 -4 6 2 6 14 -1 13 -7 19 -17 16
-26z m126 25 c0 -5 -2 -10 -4 -10 -3 0 -8 5 -11 10 -3 6 -1 10 4 10 6 0 11 -4
11 -10z m-15 -74 c30 -16 30 -16 5 -16 -40 0 -100 34 -90 50 5 8 6 19 3 25 -3
5 7 -2 23 -17 16 -15 43 -34 59 -42z m1326 20 c-6 -7 -10 -15 -8 -17 1 -2 -3
1 -9 8 -16 18 -28 16 -49 -7 -21 -23 -45 -26 -45 -6 0 17 17 31 55 43 37 12
72 -1 56 -21z m-1041 -36 c0 -5 -4 -10 -10 -10 -5 0 -10 5 -10 10 0 6 5 10 10
10 6 0 10 -4 10 -10z m-675 -48 c-14 -15 -26 -38 -26 -52 -2 -32 -2 -32 6 -52
4 -11 3 -18 -4 -18 -6 0 -11 7 -11 15 0 8 -4 15 -9 15 -5 0 -11 9 -14 20 -3
11 -1 20 4 20 5 0 9 13 9 29 0 32 32 63 56 54 10 -3 7 -12 -11 -31z m219 22
c9 -8 16 -21 16 -27 0 -8 -3 -8 -9 1 -4 7 -17 15 -27 17 -10 2 -20 4 -22 4 -2
1 0 6 3 11 9 14 21 12 39 -6z m166 6 c0 -5 -2 -10 -4 -10 -3 0 -8 5 -11 10 -3
6 -1 10 4 10 6 0 11 -4 11 -10z m1745 -50 c3 -5 1 -10 -4 -10 -6 0 -11 5 -11
10 0 6 2 10 4 10 3 0 8 -4 11 -10z m-850 -10 c3 -5 2 -10 -4 -10 -5 0 -13 5
-16 10 -3 6 -2 10 4 10 5 0 13 -4 16 -10z m808 -19 c-4 -16 -1 -19 19 -15 20
5 21 4 6 -6 -21 -13 -24 -50 -6 -68 9 -9 9 -15 0 -24 -18 -18 -46 2 -50 35 -4
33 16 109 28 102 4 -3 6 -14 3 -24z m-686 -13 c-3 -8 -6 -5 -6 6 -1 11 2 17 5
13 3 -3 4 -12 1 -19z m-649 -7 c-5 -22 -25 -24 -31 -2 -3 15 0 19 14 18 11 -1
18 -8 17 -16z m432 -21 c0 -5 -2 -10 -4 -10 -3 0 -8 5 -11 10 -3 6 -1 10 4 10
6 0 11 -4 11 -10z m-524 -33 c3 -32 -6 -34 -32 -6 -16 17 -16 22 -4 29 22 14
33 7 36 -23z m-626 -11 c0 -13 -7 -26 -15 -30 -12 -4 -13 -2 -7 12 5 9 7 23 5
30 -3 6 0 12 6 12 6 0 11 -11 11 -24z m560 4 c0 -5 11 -12 26 -16 31 -8 29
-33 -4 -45 -20 -8 -22 -6 -17 11 6 20 -9 28 -20 10 -11 -18 -45 -11 -45 9 0
23 16 36 25 21 3 -5 1 -10 -5 -10 -6 0 -8 -4 -5 -10 11 -18 25 -10 25 15 0 14
5 25 10 25 6 0 10 -4 10 -10z m-130 -54 c0 -11 -19 -15 -25 -6 -3 5 1 10 9 10
9 0 16 -2 16 -4z m396 -62 c-4 -11 1 -18 14 -21 14 -4 20 -14 20 -33 0 -15 9
-37 20 -50 11 -13 21 -28 22 -34 5 -41 4 -72 -4 -77 -7 -4 -6 -14 1 -27 6 -11
11 -30 11 -41 0 -18 -6 -21 -50 -21 -39 0 -50 4 -50 16 0 9 -5 12 -11 8 -7 -4
-10 -1 -7 7 5 17 48 25 48 10 0 -6 -4 -11 -10 -11 -5 0 -10 -4 -10 -10 0 -5 3
-10 8 -10 34 1 60 76 33 97 -13 9 -14 14 -3 24 19 20 14 54 -13 83 -14 15 -22
33 -18 42 4 10 -2 17 -16 21 -21 5 -21 7 -5 24 21 23 28 24 20 3z m-566 -24
c0 -5 -4 -10 -10 -10 -5 0 -10 5 -10 10 0 6 5 10 10 10 6 0 10 -4 10 -10z
m3536 -57 c-10 -10 -19 5 -10 18 6 11 8 11 12 0 2 -7 1 -15 -2 -18z m-3514 -5
c-7 -7 -12 -20 -12 -30 0 -10 -6 -18 -14 -18 -7 0 -24 -10 -37 -23 -14 -12
-33 -20 -44 -18 -17 3 -18 2 -5 -15 8 -10 10 -15 3 -11 -15 10 -22 -13 -12
-40 5 -14 5 -23 -1 -23 -6 0 -10 -6 -10 -14 0 -8 -7 -16 -14 -19 -10 -4 -13
-1 -9 10 3 8 0 19 -8 24 -10 7 -11 11 -2 17 6 4 11 16 10 27 -1 12 3 19 11 17
9 -2 12 7 10 30 -2 20 -8 32 -15 31 -16 -4 -17 9 -1 25 17 17 25 15 32 -10 6
-20 8 -21 19 -7 6 9 17 14 23 12 6 -2 26 10 45 26 31 28 57 35 31 9z m-252
-63 c0 -2 -8 -19 -18 -37 -11 -18 -19 -47 -20 -65 0 -17 -6 -42 -12 -54 -8
-13 -9 -38 -5 -68 8 -55 -3 -49 -16 8 -7 32 -6 48 6 72 9 16 13 39 10 49 -7
21 29 100 45 100 6 0 10 -2 10 -5z m897 -37 c-3 -8 -6 -5 -6 6 -1 11 2 17 5
13 3 -3 4 -12 1 -19z m776 -73 c-10 -7 -22 -11 -27 -8 -5 4 -1 12 9 19 10 7
22 11 27 8 5 -3 1 -12 -9 -19z m-1603 -30 c0 -19 -4 -35 -9 -35 -8 0 -9 19 -2
63 3 21 11 2 11 -28z m864 -38 c-4 -7 -16 -24 -26 -39 -11 -16 -15 -28 -9 -28
6 0 11 -7 11 -15 0 -19 -32 -33 -38 -17 -2 7 -13 12 -25 12 l-21 0 21 15 c12
8 23 25 25 38 2 12 13 26 26 32 12 5 22 13 22 18 0 4 5 5 10 2 6 -4 7 -12 4
-18z m110 -38 c-2 -4 0 -10 6 -14 5 -3 10 1 10 9 0 9 5 17 10 18 29 4 35 1 40
-20 3 -13 8 -22 11 -20 3 2 14 -4 24 -12 15 -13 19 -12 30 3 16 22 31 21 55
-3 12 -12 25 -18 30 -15 5 3 11 1 15 -5 11 -18 23 -10 18 13 -4 15 -2 19 5 12
21 -19 21 -64 1 -87 -15 -18 -20 -20 -28 -9 -6 9 -11 10 -15 2 -13 -20 -26
-11 -26 18 0 17 -4 33 -10 36 -12 8 -13 -1 -1 -43 8 -26 7 -34 -5 -39 -8 -3
-21 3 -29 13 -13 17 -14 17 -15 2 0 -9 6 -18 13 -21 17 -5 -10 -37 -32 -37 -9
0 -22 -5 -27 -10 -6 -6 -18 -8 -27 -4 -20 7 -23 44 -4 44 6 0 3 7 -8 16 -19
15 -19 16 -1 29 25 19 12 37 -19 25 -17 -7 -25 -6 -25 1 0 6 -7 9 -15 5 -8 -3
-15 -1 -15 4 0 6 -7 10 -15 10 -19 0 -19 17 -1 35 12 12 16 11 31 -5 29 -32
38 -23 16 14 -12 19 -18 41 -15 51 5 13 9 14 15 4 4 -7 6 -16 3 -20z m226 9
c0 -19 -2 -20 -10 -8 -13 19 -13 30 0 30 6 0 10 -10 10 -22z m-98 -20 c-12
-12 -35 -1 -27 12 3 5 13 6 21 3 10 -4 12 -9 6 -15z m2548 4 c0 -5 -7 -17 -15
-28 -13 -17 -14 -17 -15 -1 0 9 5 17 11 17 5 0 7 5 4 10 -3 6 -1 10 4 10 6 0
11 -4 11 -8z m-2060 -12 c0 -5 -2 -10 -4 -10 -3 0 -8 5 -11 10 -3 6 -1 10 4
10 6 0 11 -4 11 -10z m69 1 c8 -5 11 -16 8 -26 -6 -15 -9 -15 -31 2 -16 12
-20 20 -12 25 14 10 18 10 35 -1z m1961 -51 c0 -4 -6 -10 -14 -13 -10 -4 -12
0 -9 14 5 18 23 18 23 -1z m-2343 -69 c-2 -11 5 -31 19 -47 28 -34 31 -53 7
-33 -33 26 -62 39 -68 29 -3 -5 3 -13 12 -19 16 -9 16 -10 2 -11 -9 0 -22 7
-29 15 -9 10 -9 15 -1 15 6 0 11 5 11 11 0 5 -4 7 -10 4 -20 -13 -9 7 18 30
33 29 46 31 39 6z m598 -51 c16 -18 16 -20 2 -20 -10 0 -17 5 -17 11 0 6 -7 9
-15 5 -15 -5 -20 5 -8 17 10 11 19 8 38 -13z m-693 -13 c23 -18 9 -37 -19 -26
-15 5 -21 14 -17 24 7 18 14 18 36 2z m-1342 -47 c0 -13 -1 -13 -10 0 -5 8
-10 22 -10 30 0 13 1 13 10 0 5 -8 10 -22 10 -30z m1444 -46 c21 -8 21 -34 0
-34 -9 0 -27 9 -41 20 l-26 20 26 0 c14 0 32 -3 41 -6z m106 -45 c0 -5 -9 -9
-20 -9 -22 0 -27 16 -7 23 15 5 27 -1 27 -14z m144 -41 c5 -21 3 -28 -9 -28
-8 0 -15 -4 -15 -9 0 -5 10 -7 23 -4 13 3 17 1 11 -4 -6 -4 -17 -31 -24 -60
-12 -46 -15 -50 -26 -35 -12 15 -13 14 -14 -13 0 -16 -4 -25 -8 -19 -9 14 -38
24 -47 16 -3 -3 -16 -7 -28 -7 -21 0 -26 -13 -16 -40 2 -5 0 -11 -5 -12 -5 -1
-12 -6 -16 -13 -4 -6 -30 -11 -58 -12 -54 0 -63 -7 -37 -28 20 -17 11 -28 -22
-26 -41 4 -73 27 -73 54 0 14 4 21 10 17 6 -4 17 -1 25 5 11 9 15 9 15 1 0 -6
4 -11 10 -11 5 0 7 7 4 15 -5 11 1 15 24 15 32 0 58 22 47 40 -4 6 -16 8 -28
4 -17 -5 -14 0 11 21 19 16 38 39 43 53 12 30 18 26 23 -17 4 -38 10 -45 31
-37 12 4 14 10 5 25 -5 11 -10 22 -10 25 0 13 25 5 47 -16 26 -25 40 -19 24
10 -8 15 -7 23 4 32 8 7 13 16 10 20 -3 4 4 10 15 13 12 3 20 14 20 25 0 11 6
22 13 25 15 5 13 8 21 -25z m-135 -31 c1 -4 -7 -3 -16 2 -10 5 -21 9 -25 10
-15 2 -9 15 9 22 16 6 30 -8 32 -34z m36 -156 c-3 -6 -14 -10 -23 -10 -15 1
-15 2 1 6 9 2 17 9 17 15 0 6 3 9 6 5 3 -3 3 -10 -1 -16z m508 -46 c-3 -9 -8
-14 -10 -11 -3 3 -2 9 2 15 9 16 15 13 8 -4z m-11 -44 c-8 -4 -19 -19 -26 -32
-8 -17 -24 -26 -56 -31 -50 -9 -55 -6 -45 19 5 12 9 14 12 6 8 -22 39 -14 69
16 16 16 36 29 44 30 12 0 12 -1 2 -8z m-806 -43 c-9 -12 -16 -17 -16 -10 0
18 24 54 28 42 2 -5 -4 -20 -12 -32z m309 -88 c-3 -5 -11 -10 -16 -10 -6 0 -7
5 -4 10 3 6 11 10 16 10 6 0 7 -4 4 -10z m-182 -125 c4 -8 2 -17 -2 -20 -5 -2
-11 4 -14 15 -6 23 8 27 16 5z m-29 -54 c3 -5 -1 -12 -10 -15 -11 -4 -13 -13
-8 -28 7 -23 6 -23 -15 -4 -25 22 -27 36 -6 36 8 0 15 5 15 10 0 12 17 13 24
1z m-199 -73 c4 -18 8 -36 9 -40 5 -31 56 -16 56 18 0 27 24 33 34 8 12 -31 5
-51 -25 -73 -25 -19 -36 -21 -53 -13 -15 6 -28 6 -40 0 -12 -7 -22 -6 -33 4
-9 7 -19 12 -22 12 -16 -4 -51 17 -51 31 0 12 4 14 19 5 11 -5 26 -10 33 -9 7
0 4 4 -7 9 -20 9 -17 10 30 14 16 1 20 8 20 34 0 17 5 32 11 32 6 0 15 -15 19
-32z m176 -16 c-5 -2 -22 4 -38 13 -15 9 -20 14 -10 11 9 -3 17 0 17 6 0 6 9
3 21 -8 11 -10 16 -20 10 -22z"/>
<path d="M4186 3775 c-4 -14 -11 -25 -17 -25 -6 0 -4 -7 5 -15 20 -21 40 -19
32 3 -4 12 -1 11 13 -5 11 -13 25 -23 32 -23 9 0 8 5 -3 18 -8 9 -19 29 -26
45 -14 34 -28 35 -36 2z"/>
<path d="M3961 2653 c19 -25 31 -33 49 -33 9 0 3 10 -15 25 -35 28 -53 33 -34
8z"/>
<path d="M3260 3446 c0 -2 7 -7 16 -10 8 -3 12 -2 9 4 -6 10 -25 14 -25 6z"/>
<path d="M2810 2475 c-7 -8 -8 -15 -2 -15 5 0 15 7 22 15 7 8 8 15 2 15 -5 0
-15 -7 -22 -15z"/>
<path d="M2760 2370 c0 -5 5 -10 10 -10 6 0 10 5 10 10 0 6 -4 10 -10 10 -5 0
-10 -4 -10 -10z"/>
<path d="M2625 2350 c-3 -5 -1 -10 4 -10 6 0 11 5 11 10 0 6 -2 10 -4 10 -3 0
-8 -4 -11 -10z"/>
<path d="M2546 2274 c-8 -21 -4 -25 14 -14 11 7 12 12 4 20 -8 8 -13 7 -18 -6z"/>
<path d="M2730 2280 c0 -5 5 -10 10 -10 6 0 10 5 10 10 0 6 -4 10 -10 10 -5 0
-10 -4 -10 -10z"/>
<path d="M1970 1540 c-8 -5 -11 -12 -7 -16 4 -4 13 -2 19 4 15 15 7 24 -12 12z"/>
<path d="M2266 1182 c-3 -5 1 -15 9 -22 16 -14 20 -3 6 19 -5 8 -11 9 -15 3z"/>
<path d="M1770 4626 c-8 -12 -19 -17 -35 -14 -18 4 -25 0 -28 -16 -3 -19 -5
-18 -16 9 -9 21 -14 26 -20 16 -7 -10 -13 -10 -29 -2 -18 9 -26 6 -56 -23 -20
-18 -36 -39 -36 -47 0 -8 -5 -6 -14 6 -13 18 -15 18 -37 -9 -13 -15 -36 -29
-52 -30 -15 -2 -38 -15 -52 -30 -14 -15 -25 -24 -25 -20 0 4 -13 -4 -28 -19
-16 -15 -31 -24 -35 -21 -4 4 -15 0 -24 -8 -10 -8 -26 -16 -35 -17 -41 -3 -47
-5 -53 -19 -3 -7 -3 -18 1 -23 3 -5 0 -9 -5 -9 -6 0 -11 5 -11 10 0 6 -4 10
-10 10 -5 0 -10 -7 -10 -16 0 -9 -15 -30 -32 -48 -18 -18 -50 -51 -71 -74 -35
-38 -36 -42 -15 -38 28 5 88 35 106 53 7 7 19 13 25 13 7 0 26 12 43 28 127
110 140 120 174 124 31 3 56 17 96 56 20 20 97 49 118 44 10 -2 22 2 27 9 4 7
26 14 49 15 23 1 49 9 59 18 10 9 27 16 39 16 23 0 52 34 52 61 0 23 -45 20
-60 -5z m-120 -66 c-20 -13 -33 -13 -25 0 3 6 14 10 23 10 15 0 15 -2 2 -10z"/>
<path d="M2168 4539 c-7 -4 -6 -9 1 -13 20 -13 12 -23 -30 -39 -29 -11 -47
-13 -65 -6 -32 12 -54 12 -36 0 23 -14 9 -45 -23 -54 -17 -5 -38 -13 -47 -18
-27 -13 -41 -11 -34 6 6 17 -13 65 -26 65 -11 0 -10 -21 2 -40 5 -9 5 -19 -1
-26 -7 -8 -6 -14 1 -19 22 -14 9 -27 -25 -23 -36 4 -47 -5 -18 -16 32 -12 -1
-25 -41 -16 -48 11 -65 25 -48 42 7 7 12 16 12 21 0 5 -7 1 -16 -7 -8 -9 -25
-16 -36 -16 -20 0 -19 -1 4 -19 13 -11 37 -23 51 -26 16 -4 27 -14 27 -24 0
-29 75 -44 131 -27 54 17 102 9 147 -23 39 -28 42 -27 37 11 -5 41 -34 69 -73
70 -18 1 -32 2 -32 4 0 1 4 14 10 29 11 28 116 85 157 85 23 0 36 17 47 62 6
25 4 26 -30 25 -19 -1 -40 -5 -46 -8z"/>
<path d="M1910 4510 c0 -5 5 -10 11 -10 5 0 7 5 4 10 -3 6 -8 10 -11 10 -2 0
-4 -4 -4 -10z"/>
<path d="M2670 4482 c0 -12 19 -26 26 -19 2 2 -2 10 -11 17 -9 8 -15 8 -15 2z"/>
<path d="M1830 4460 c0 -6 -12 -15 -27 -21 -17 -7 -23 -13 -15 -16 7 -3 18 0
26 6 9 7 16 7 24 -1 9 -9 12 -6 12 15 0 15 -4 27 -10 27 -5 0 -10 -5 -10 -10z"/>
<path d="M1593 4442 c-13 -2 -23 -8 -23 -14 0 -6 -15 -7 -37 -3 -35 5 -39 3
-51 -24 -17 -38 -61 -69 -72 -50 -15 23 -40 -9 -40 -52 0 -44 18 -51 58 -23
21 14 22 14 22 -5 0 -11 8 -25 18 -31 14 -9 11 -10 -15 -7 -35 4 -36 3 -23
-28 7 -18 8 -19 15 -2 4 9 16 17 26 17 11 0 22 7 26 16 5 13 8 12 25 -5 10
-12 27 -21 38 -21 28 0 80 48 80 75 0 14 13 33 37 51 21 16 31 30 24 32 -7 2
-21 -4 -32 -14 -18 -16 -19 -16 -19 4 0 12 -4 22 -10 22 -15 0 -42 -59 -35
-79 3 -11 -3 -25 -15 -36 -17 -15 -26 -17 -48 -9 -15 6 -26 17 -25 25 4 32 36
105 55 126 20 21 54 21 41 -1 -4 -6 1 -5 10 3 30 24 15 41 -30 33z"/>
<path d="M1690 4409 c0 -10 50 -18 55 -9 3 4 -9 10 -25 12 -17 3 -30 1 -30 -3z"/>
<path d="M1640 4406 c0 -9 30 -14 35 -6 4 6 -3 10 -14 10 -12 0 -21 -2 -21 -4z"/>
<path d="M1810 4398 c0 -9 5 -20 11 -23 17 -11 18 -2 3 19 -12 17 -14 17 -14
4z"/>
<path d="M2555 4380 c-3 -5 -2 -10 4 -10 5 0 13 5 16 10 3 6 2 10 -4 10 -5 0
-13 -4 -16 -10z"/>
<path d="M1702 4317 c-18 -18 -32 -40 -32 -49 0 -9 -4 -20 -10 -23 -15 -9 -12
-55 4 -55 34 0 85 32 109 69 34 51 18 53 -27 4 -19 -21 -38 -35 -42 -31 -4 4
3 31 15 59 12 29 20 54 18 55 -2 2 -18 -11 -35 -29z"/>
<path d="M1240 4239 c0 -6 -7 -17 -15 -25 -22 -22 -19 -30 15 -44 36 -15 31
-29 -9 -26 -20 1 -27 -2 -24 -11 3 -6 -7 -24 -21 -38 -14 -14 -26 -32 -26 -39
0 -8 -7 -13 -16 -12 -13 1 -17 -8 -16 -36 0 -21 1 -41 2 -45 1 -5 1 -18 1 -29
-2 -15 5 -23 23 -28 13 -3 28 -15 31 -27 4 -11 9 -18 12 -15 4 3 11 2 18 -4 8
-6 17 0 29 20 9 17 25 30 34 30 13 -1 9 -7 -13 -26 -19 -17 -23 -24 -11 -20
14 5 17 2 12 -9 -3 -9 3 -25 14 -37 11 -12 20 -30 20 -40 0 -11 7 -18 20 -18
22 0 25 -12 10 -41 -8 -15 -7 -21 4 -25 12 -5 13 -11 4 -30 -6 -13 -16 -20
-22 -17 -6 4 -5 -1 3 -10 7 -9 19 -17 26 -17 19 0 75 68 75 90 0 11 6 20 13
20 8 0 19 11 27 24 7 14 25 30 41 36 31 13 44 39 34 70 -5 15 -2 20 10 20 20
0 126 101 119 112 -3 4 4 8 15 8 12 0 25 11 33 28 7 15 22 28 34 30 25 4 52
57 50 97 -1 26 -5 30 -31 30 -22 0 -33 -6 -40 -22 -5 -13 -18 -24 -27 -24 -10
-1 -22 -3 -28 -4 -5 -1 -14 -3 -20 -4 -14 -1 -13 -34 1 -48 16 -16 3 -45 -18
-41 -12 2 -18 13 -18 28 0 31 -26 33 -40 3 -6 -14 -22 -24 -45 -28 -19 -4 -41
-12 -49 -18 -8 -7 -33 -13 -56 -13 -38 -1 -42 1 -38 20 4 17 3 18 -6 6 -9 -13
-11 -13 -11 0 0 13 -2 13 -14 0 -8 -8 -17 -25 -21 -37 -5 -19 -3 -22 11 -16
20 8 13 -8 -19 -44 -23 -25 -47 -32 -27 -8 8 10 9 15 2 15 -6 0 -16 -8 -21
-17 -6 -10 -11 -12 -11 -5 0 6 -5 12 -11 12 -6 0 -8 -7 -5 -16 4 -12 2 -15 -9
-10 -8 3 -15 1 -15 -4 0 -23 -19 -8 -25 20 -8 36 1 56 20 40 9 -8 15 -6 20 7
5 10 7 22 6 27 -1 5 7 19 19 31 11 12 17 25 13 28 -12 13 13 7 26 -5 11 -11
13 -9 8 10 -3 15 -1 22 9 22 8 0 14 9 14 19 0 11 5 23 10 26 6 4 7 11 4 17 -4
6 -3 8 2 5 6 -3 15 3 22 13 7 12 8 21 2 25 -6 4 -8 11 -5 16 4 5 1 9 -4 9 -6
0 -11 -6 -11 -13 0 -10 -13 -12 -45 -10 -29 2 -45 -1 -45 -8 0 -8 -4 -8 -15 1
-9 8 -13 21 -9 36 3 13 3 24 0 24 -3 0 -6 -5 -6 -11z m60 -84 c0 -8 -2 -15 -4
-15 -2 0 -6 7 -10 15 -3 8 -1 15 4 15 6 0 10 -7 10 -15z m30 5 c0 -5 -4 -10
-10 -10 -5 0 -10 5 -10 10 0 6 5 10 10 10 6 0 10 -4 10 -10z m-77 -60 c3 -12
-4 -29 -19 -45 -13 -14 -31 -39 -39 -56 -18 -35 -43 -39 -40 -6 4 36 4 37 18
37 24 0 57 37 57 64 0 30 15 35 23 6z m-37 -27 c-10 -10 -19 5 -10 18 6 11 8
11 12 0 2 -7 1 -15 -2 -18z m384 -100 c0 -20 -3 -24 -11 -16 -7 7 -9 19 -6 27
10 24 17 19 17 -11z"/>
<path d="M1880 4229 c0 -5 5 -7 10 -4 6 3 10 8 10 11 0 2 -4 4 -10 4 -5 0 -10
-5 -10 -11z"/>
<path d="M965 4172 c-3 -3 -5 -13 -5 -23 0 -10 -9 -34 -21 -53 -12 -20 -18
-36 -14 -36 18 0 45 23 45 39 0 10 7 24 15 31 8 7 15 20 15 30 0 15 -23 23
-35 12z"/>
<path d="M1902 4155 c-15 -32 -15 -45 -2 -45 6 0 10 9 10 20 0 13 7 20 20 20
11 0 20 7 20 15 0 25 -36 17 -48 -10z"/>
<path d="M2450 4150 c-13 -8 -12 -10 3 -10 9 0 17 5 17 10 0 12 -1 12 -20 0z"/>
<path d="M1115 4140 c-3 -5 -1 -10 4 -10 6 0 11 5 11 10 0 6 -2 10 -4 10 -3 0
-8 -4 -11 -10z"/>
<path d="M1940 4095 c-9 -17 -16 -21 -21 -14 -4 8 -9 4 -14 -10 -3 -11 -13
-21 -21 -21 -10 0 -9 -5 6 -20 26 -26 25 -29 -10 -64 l-29 -28 -5 23 c-3 13
-7 33 -8 43 -2 11 -9 21 -16 24 -10 3 -12 -9 -6 -57 3 -34 3 -61 -2 -61 -22 1
-35 19 -32 46 3 27 0 29 -32 31 -20 2 -29 -1 -20 -5 20 -9 28 -102 9 -102 -7
0 -29 16 -49 35 -39 39 -50 36 -65 -15 -8 -25 -7 -25 13 -7 21 20 39 8 28 -18
-3 -9 1 -15 9 -15 11 0 12 -5 5 -26 -6 -14 -10 -35 -10 -46 0 -18 3 -17 32 11
17 17 36 31 41 31 9 0 5 -28 -9 -65 -5 -12 -2 -16 11 -13 16 3 18 -3 16 -49
-2 -41 1 -53 12 -53 11 0 15 14 16 55 0 69 28 122 81 156 58 38 86 78 98 142
11 55 7 117 -8 117 -3 0 -13 -11 -20 -25z"/>
<path d="M2750 3975 c0 -8 1 -17 3 -19 1 -2 -6 -13 -16 -24 -21 -23 -75 -36
-91 -23 -8 7 -10 -1 -8 -28 3 -35 8 -40 42 -50 43 -13 80 -14 96 -3 6 4 17 24
24 44 11 30 11 39 0 53 -7 8 -10 19 -6 23 4 4 18 -5 30 -20 12 -16 28 -28 35
-28 20 0 -3 24 -56 60 -51 35 -53 35 -53 15z"/>
<path d="M1060 3971 c0 -6 4 -13 10 -16 6 -3 7 1 4 9 -7 18 -14 21 -14 7z"/>
<path d="M1005 3901 c-3 -5 -1 -12 4 -15 5 -3 11 1 15 9 6 16 -9 21 -19 6z"/>
<path d="M1160 3880 c0 -20 -38 -53 -50 -45 -6 4 -10 -1 -10 -10 0 -9 -8 -19
-19 -22 -12 -3 -18 -14 -18 -30 0 -14 -7 -29 -14 -34 -7 -4 -10 -11 -6 -15 4
-4 17 2 30 13 12 11 27 19 34 16 6 -2 14 1 18 6 3 6 1 11 -4 11 -19 0 -12 17
9 23 11 3 20 13 20 23 0 9 7 25 14 33 10 11 12 21 6 31 -9 13 -10 13 -10 0z"/>
<path d="M1575 3850 c4 -6 11 -8 16 -5 14 9 11 15 -7 15 -8 0 -12 -5 -9 -10z"/>
<path d="M1080 3840 c0 -5 -12 -10 -27 -11 l-28 0 24 -10 c18 -7 27 -6 33 3 9
15 10 28 3 28 -3 0 -5 -4 -5 -10z"/>
<path d="M1215 3790 c-3 -5 1 -10 10 -10 9 0 13 5 10 10 -3 6 -8 10 -10 10 -2
0 -7 -4 -10 -10z"/>
<path d="M1155 3760 c-42 -18 -116 -103 -102 -117 9 -8 59 26 52 37 -3 5 0 12
6 16 8 4 9 3 5 -4 -12 -20 9 -13 27 9 18 20 39 22 38 4 0 -6 7 -17 15 -26 8
-9 11 -20 7 -24 -5 -5 0 -3 10 4 9 7 17 20 17 28 0 18 -24 43 -42 43 -10 0
-10 2 1 9 7 5 10 14 7 20 -8 13 -14 13 -41 1z"/>
<path d="M1210 3759 c0 -5 5 -7 10 -4 6 3 10 8 10 11 0 2 -4 4 -10 4 -5 0 -10
-5 -10 -11z"/>
<path d="M985 3670 c-10 -11 -14 -20 -8 -20 5 0 18 9 28 20 10 11 14 20 8 20
-5 0 -18 -9 -28 -20z"/>
<path d="M2897 3684 c-4 -4 -7 -14 -7 -23 0 -11 3 -12 11 -4 6 6 10 16 7 23
-2 6 -7 8 -11 4z"/>
<path d="M1177 3653 c-4 -3 -7 -11 -7 -17 0 -6 5 -5 12 2 6 6 9 14 7 17 -3 3
-9 2 -12 -2z"/>
<path d="M2025 3264 c-11 -8 -26 -12 -33 -9 -20 8 -37 -6 -21 -16 17 -11 70
-11 86 -1 10 7 10 11 0 25 -11 14 -14 14 -32 1z"/>
<path d="M1910 3192 c0 -6 -9 -8 -20 -5 -23 6 -23 6 -9 -36 8 -22 16 -30 26
-27 8 3 18 6 22 6 10 0 1 59 -10 66 -5 3 -9 1 -9 -4z"/>
<path d="M1814 3165 c-4 -9 -11 -15 -18 -14 -25 3 -49 -1 -42 -8 4 -4 24 -13
45 -19 33 -9 40 -9 48 6 7 10 7 22 1 33 -11 21 -27 22 -34 2z"/>
<path d="M800 3150 c0 -5 5 -10 10 -10 6 0 10 5 10 10 0 6 -4 10 -10 10 -5 0
-10 -4 -10 -10z"/>
<path d="M1521 3091 c-14 -4 -27 -13 -29 -20 -5 -16 36 -6 58 15 15 15 9 16
-29 5z"/>
<path d="M1595 3080 c-3 -5 1 -10 10 -10 9 0 13 5 10 10 -3 6 -8 10 -10 10 -2
0 -7 -4 -10 -10z"/>
<path d="M1606 2945 c-11 -8 -17 -17 -15 -20 9 -8 48 7 53 21 7 18 -14 17 -38
-1z"/>
<path d="M457 2883 c-10 -10 -8 -93 2 -93 4 0 9 23 10 50 1 51 -1 55 -12 43z"/>
<path d="M1667 2849 c3 -10 9 -16 14 -13 13 8 11 21 -5 27 -10 4 -12 0 -9 -14z"/>
<path d="M461 2764 c0 -11 3 -14 6 -6 3 7 2 16 -1 19 -3 4 -6 -2 -5 -13z"/>
<path d="M1686 2743 c-6 -14 -5 -15 5 -6 7 7 10 15 7 18 -3 3 -9 -2 -12 -12z"/>
<path d="M485 2420 c-3 -5 -3 -14 0 -20 3 -5 2 -10 -4 -10 -5 0 -12 8 -14 18
-4 16 -5 16 -6 0 0 -10 9 -28 20 -39 l22 -22 14 27 c8 15 12 34 9 42 -6 16
-32 19 -41 4z"/>
<path d="M497 2234 c-3 -3 -3 -12 -1 -19 3 -7 1 -16 -4 -19 -6 -3 -8 -15 -5
-26 3 -11 9 -17 14 -14 14 8 11 -20 -3 -35 -11 -11 -10 -12 2 -6 13 8 13 7 1
-8 -11 -15 -11 -17 2 -17 8 0 18 -6 21 -12 3 -9 12 -5 26 12 19 21 21 33 16
74 -3 27 -9 53 -13 57 -13 11 -49 20 -56 13z"/>
<path d="M2180 329 c-22 -6 -23 -7 -4 -8 12 -1 43 -4 70 -7 38 -4 45 -3 32 6
-23 14 -67 19 -98 9z"/>
</g>
</svg>
